<svg viewBox="0 0 348 348" fill="none" xmlns="http://www.w3.org/2000/svg"><path d="M5.079 5.776h336.913v337.67H5.08z" stroke-width="2" stroke="#000"/><path d="M282.734 40.554c0-8.376 6.966-15.165 15.56-15.165 4.126 0 8.084 1.597 11.001 4.441 2.918 2.844 4.558 6.702 4.558 10.724 0 8.376-6.966 15.165-15.56 15.165-8.593 0-15.559-6.79-15.559-15.165z" stroke-width="2" stroke="#000"/><path style="fill:#000" d="M97 99.727h161.447v149.591H97z"/><path style="fill:#fff" d="M104.671 107.748H249.38v134.597H104.671z"/><path style="fill:#000" d="m177.487 37.66 13.254 23.869 15.213 26.645-27.298-.457-30.682-.147 14.044-23.413z" transform="translate(2.026)"/><path style="fill:#000" d="m177.487 37.66 13.254 23.869 15.213 26.645-27.298-.457-30.682-.147 14.044-23.413z" transform="rotate(-90 166.647 179.307)"/><path style="fill:#000" d="m177.487 37.66 13.254 23.869 15.213 26.645-27.298-.457-30.682-.147 14.044-23.413z" transform="rotate(90 186.792 178.818)"/><path style="fill:#000" d="m177.487 37.66 13.254 23.869 15.213 26.645-27.298-.457-30.682-.147 14.044-23.413z" transform="matrix(1 0 0 -1 2.026 355.172)"/><path style="fill:#000;stroke-width:1.02008" d="M126.924 110h4.354v16.737h-4.354zM158.141 110h4.354v16.737h-4.354zM189.357 110h4.354v16.737h-4.354zM220.574 110h4.354v16.737h-4.354zM126.924 137.5h4.354v16.737h-4.354zM158.141 137.5h4.354v16.737h-4.354zM189.357 137.5h4.354v16.737h-4.354zM220.574 137.5h4.354v16.737h-4.354zM126.924 165h4.354v16.737h-4.354zM158.141 165h4.354v16.737h-4.354zM189.357 165h4.354v16.737h-4.354zM220.574 165h4.354v16.737h-4.354zM127.335 192.5h4.354v16.737h-4.354zM158.551 192.5h4.354v16.737h-4.354zM189.768 192.5h4.354v16.737h-4.354zM220.985 192.5h4.354v16.737h-4.354zM126.924 220h4.354v16.737h-4.354zM158.141 220h4.354v16.737h-4.354zM189.357 220h4.354v16.737h-4.354zM220.574 220h4.354v16.737h-4.354z"/><path style="fill:#000;stroke-width:1.02008" transform="rotate(90)" d="M130-123.661h4.354v16.737H130zM130-153.661h4.354v16.737H130zM130-183.661h4.354v16.737H130zM130-213.661h4.354v16.737H130zM130-243.661h4.354v16.737H130zM157.5-123.661h4.354v16.737H157.5zM157.5-153.661h4.354v16.737H157.5zM157.5-183.661h4.354v16.737H157.5zM157.5-213.661h4.354v16.737H157.5zM157.5-243.661h4.354v16.737H157.5zM185-123.661h4.354v16.737H185zM185-153.661h4.354v16.737H185zM185-183.661h4.354v16.737H185zM185-213.661h4.354v16.737H185zM185-243.661h4.354v16.737H185zM212.5-123.661h4.354v16.737H212.5zM212.5-153.661h4.354v16.737H212.5zM212.5-183.661h4.354v16.737H212.5zM212.5-213.661h4.354v16.737H212.5zM212.5-243.661h4.354v16.737H212.5z"/><path style="fill:#000;stroke-width:1.31855" d="M19.876 22.665h45.679v43.936H19.876z"/><path style="fill:#fff;stroke-width:1.31855" d="M23.268 25.002h38.443v38.794H23.268z"/><path d="M47.194 38.76q0 1.023-.482 2.02-.47.999-1.327 1.692-.939.751-2.196 1.174-1.244.423-3.006.423-1.89 0-3.405-.352-1.503-.353-3.065-1.046V39.76h.164q1.327 1.104 3.065 1.703t3.265.599q2.16 0 3.358-.81 1.21-.81 1.21-2.161 0-1.163-.576-1.715-.563-.552-1.726-.857-.88-.235-1.914-.388-1.022-.152-2.173-.387-2.325-.493-3.452-1.68-1.116-1.197-1.116-3.111 0-2.196 1.856-3.594 1.855-1.409 4.709-1.409 1.844 0 3.382.352 1.538.353 2.724.87v2.747h-.164q-.998-.845-2.63-1.397-1.621-.564-3.324-.564-1.867 0-3.006.775-1.128.775-1.128 1.997 0 1.092.564 1.714.564.622 1.985.951.751.165 2.137.4 1.386.234 2.349.481 1.949.517 2.935 1.562.987 1.045.987 2.924z" transform="matrix(1.18394 0 0 1.46847 -5.904 -7.716)" aria-label="S" style="font-size:24.0501px;fill:#000;stroke-width:2.00417"/></svg>