<?xml version="1.0" encoding="UTF-8" standalone="no"?>
<svg
   viewBox="0.0 0.0 348.0 348.0"
   fill="none"
   version="1.1"
   id="svg13"
   sodipodi:docname="Module Name.svg"
   inkscape:version="1.2.1 (9c6d41e410, 2022-07-14)"
   xmlns:inkscape="http://www.inkscape.org/namespaces/inkscape"
   xmlns:sodipodi="http://sodipodi.sourceforge.net/DTD/sodipodi-0.dtd"
   xmlns="http://www.w3.org/2000/svg"
   xmlns:svg="http://www.w3.org/2000/svg">
  <defs
     id="defs17" />
  <sodipodi:namedview
     id="namedview15"
     pagecolor="#ffffff"
     bordercolor="#000000"
     borderopacity="0.25"
     inkscape:showpageshadow="2"
     inkscape:pageopacity="0.0"
     inkscape:pagecheckerboard="0"
     inkscape:deskcolor="#d1d1d1"
     showgrid="false"
     inkscape:zoom="2.8678161"
     inkscape:cx="174"
     inkscape:cy="174.17435"
     inkscape:window-width="2560"
     inkscape:window-height="1361"
     inkscape:window-x="1691"
     inkscape:window-y="-9"
     inkscape:window-maximized="1"
     inkscape:current-layer="svg13" />
  <path
     d="M5.079 5.776h336.913v337.67H5.08z"
     stroke-width="2"
     stroke="#000"
     id="path9" />
  <path
     d="M282.734 40.554c0-8.376 6.966-15.165 15.56-15.165 4.126 0 8.084 1.597 11.001 4.441 2.918 2.844 4.558 6.702 4.558 10.724 0 8.376-6.966 15.165-15.56 15.165-8.593 0-15.559-6.79-15.559-15.165z"
     stroke-width="2"
     stroke="#000"
     id="path11" />
  <rect
     style="fill:#000000"
     id="rect181"
     width="161.4469"
     height="149.59119"
     x="97"
     y="99.727455" />
  <rect
     style="fill:#ffffff"
     id="rect235"
     width="144.70941"
     height="134.5972"
     x="104.67135"
     y="107.7475" />
  <path
     sodipodi:type="star"
     style="fill:#000000"
     id="path544"
     inkscape:flatsided="false"
     sodipodi:sides="3"
     sodipodi:cx="177.13828"
     sodipodi:cy="71.13427"
     sodipodi:r1="33.476765"
     sodipodi:r2="16.652483"
     sodipodi:arg1="-1.56038"
     sodipodi:arg2="-0.61484968"
     inkscape:rounded="0"
     inkscape:randomized="0"
     d="m 177.48697,37.659321 13.25406,23.869201 15.21305,26.645204 -27.29836,-0.456256 -30.68195,-0.147708 14.04431,-23.412946 z"
     inkscape:transform-center-x="0.1743487"
     inkscape:transform-center-y="-8.2177471"
     transform="translate(2.02623)" />
  <path
     sodipodi:type="star"
     style="fill:#000000"
     id="path544-6"
     inkscape:flatsided="false"
     sodipodi:sides="3"
     sodipodi:cx="177.13828"
     sodipodi:cy="71.13427"
     sodipodi:r1="33.476765"
     sodipodi:r2="16.652483"
     sodipodi:arg1="-1.56038"
     sodipodi:arg2="-0.61484968"
     inkscape:rounded="0"
     inkscape:randomized="0"
     d="m 177.48697,37.659321 13.25406,23.869201 15.21305,26.645204 -27.29836,-0.456256 -30.68195,-0.147708 14.04431,-23.412946 z"
     inkscape:transform-center-x="8.217741"
     inkscape:transform-center-y="0.17434956"
     transform="rotate(-90,166.64738,179.3067)" />
  <path
     sodipodi:type="star"
     style="fill:#000000"
     id="path544-2"
     inkscape:flatsided="false"
     sodipodi:sides="3"
     sodipodi:cx="177.13828"
     sodipodi:cy="71.13427"
     sodipodi:r1="33.476765"
     sodipodi:r2="16.652483"
     sodipodi:arg1="-1.56038"
     sodipodi:arg2="-0.61484968"
     inkscape:rounded="0"
     inkscape:randomized="0"
     d="m 177.48697,37.659321 13.25406,23.869201 15.21305,26.645204 -27.29836,-0.456256 -30.68195,-0.147708 14.04431,-23.412946 z"
     inkscape:transform-center-x="-8.217752"
     inkscape:transform-center-y="-0.17434476"
     transform="rotate(90,186.7915,178.81773)" />
  <path
     sodipodi:type="star"
     style="fill:#000000"
     id="path544-8"
     inkscape:flatsided="false"
     sodipodi:sides="3"
     sodipodi:cx="177.13828"
     sodipodi:cy="71.13427"
     sodipodi:r1="33.476765"
     sodipodi:r2="16.652483"
     sodipodi:arg1="-1.56038"
     sodipodi:arg2="-0.61484968"
     inkscape:rounded="0"
     inkscape:randomized="0"
     d="m 177.48697,37.659321 13.25406,23.869201 15.21305,26.645204 -27.29836,-0.456256 -30.68195,-0.147708 14.04431,-23.412946 z"
     inkscape:transform-center-x="0.1743487"
     inkscape:transform-center-y="8.2177459"
     transform="matrix(1,0,0,-1,2.02623,355.17166)" />
  <rect
     style="fill:#000000;stroke-width:1.02008"
     id="rect594"
     width="4.3540664"
     height="16.737474"
     x="126.92385"
     y="110" />
  <rect
     style="fill:#000000;stroke-width:1.02008"
     id="rect594-1"
     width="4.3540664"
     height="16.737474"
     x="158.1405"
     y="110" />
  <rect
     style="fill:#000000;stroke-width:1.02008"
     id="rect594-0"
     width="4.3540664"
     height="16.737474"
     x="189.35715"
     y="110" />
  <rect
     style="fill:#000000;stroke-width:1.02008"
     id="rect594-6"
     width="4.3540664"
     height="16.737474"
     x="220.57382"
     y="110" />
  <rect
     style="fill:#000000;stroke-width:1.02008"
     id="rect594-01"
     width="4.3540664"
     height="16.737474"
     x="126.92385"
     y="137.5" />
  <rect
     style="fill:#000000;stroke-width:1.02008"
     id="rect594-1-7"
     width="4.3540664"
     height="16.737474"
     x="158.1405"
     y="137.5" />
  <rect
     style="fill:#000000;stroke-width:1.02008"
     id="rect594-0-6"
     width="4.3540664"
     height="16.737474"
     x="189.35715"
     y="137.5" />
  <rect
     style="fill:#000000;stroke-width:1.02008"
     id="rect594-6-1"
     width="4.3540664"
     height="16.737474"
     x="220.57382"
     y="137.5" />
  <rect
     style="fill:#000000;stroke-width:1.02008"
     id="rect594-02"
     width="4.3540664"
     height="16.737474"
     x="126.92385"
     y="165" />
  <rect
     style="fill:#000000;stroke-width:1.02008"
     id="rect594-1-2"
     width="4.3540664"
     height="16.737474"
     x="158.1405"
     y="165" />
  <rect
     style="fill:#000000;stroke-width:1.02008"
     id="rect594-0-67"
     width="4.3540664"
     height="16.737474"
     x="189.35715"
     y="165" />
  <rect
     style="fill:#000000;stroke-width:1.02008"
     id="rect594-6-4"
     width="4.3540664"
     height="16.737474"
     x="220.57382"
     y="165" />
  <rect
     style="fill:#000000;stroke-width:1.02008"
     id="rect594-02-8"
     width="4.3540664"
     height="16.737474"
     x="127.33465"
     y="192.5" />
  <rect
     style="fill:#000000;stroke-width:1.02008"
     id="rect594-1-2-8"
     width="4.3540664"
     height="16.737474"
     x="158.5513"
     y="192.5" />
  <rect
     style="fill:#000000;stroke-width:1.02008"
     id="rect594-0-67-9"
     width="4.3540664"
     height="16.737474"
     x="189.76797"
     y="192.5" />
  <rect
     style="fill:#000000;stroke-width:1.02008"
     id="rect594-6-4-5"
     width="4.3540664"
     height="16.737474"
     x="220.98462"
     y="192.5" />
  <rect
     style="fill:#000000;stroke-width:1.02008"
     id="rect594-02-3"
     width="4.3540664"
     height="16.737474"
     x="126.92385"
     y="220" />
  <rect
     style="fill:#000000;stroke-width:1.02008"
     id="rect594-1-2-4"
     width="4.3540664"
     height="16.737474"
     x="158.1405"
     y="220" />
  <rect
     style="fill:#000000;stroke-width:1.02008"
     id="rect594-0-67-91"
     width="4.3540664"
     height="16.737474"
     x="189.35715"
     y="220" />
  <rect
     style="fill:#000000;stroke-width:1.02008"
     id="rect594-6-4-53"
     width="4.3540664"
     height="16.737474"
     x="220.57382"
     y="220" />
  <rect
     style="fill:#000000;stroke-width:1.02008"
     id="rect594-7"
     width="4.3540664"
     height="16.737474"
     x="130"
     y="-123.66132"
     transform="rotate(90)" />
  <rect
     style="fill:#000000;stroke-width:1.02008"
     id="rect594-7-9"
     width="4.3540664"
     height="16.737474"
     x="130"
     y="-153.66132"
     transform="rotate(90)" />
  <rect
     style="fill:#000000;stroke-width:1.02008"
     id="rect594-7-5"
     width="4.3540664"
     height="16.737474"
     x="130"
     y="-183.66132"
     transform="rotate(90)" />
  <rect
     style="fill:#000000;stroke-width:1.02008"
     id="rect594-7-2"
     width="4.3540664"
     height="16.737474"
     x="130"
     y="-213.66132"
     transform="rotate(90)" />
  <rect
     style="fill:#000000;stroke-width:1.02008"
     id="rect594-7-29"
     width="4.3540664"
     height="16.737474"
     x="130"
     y="-243.66132"
     transform="rotate(90)" />
  <rect
     style="fill:#000000;stroke-width:1.02008"
     id="rect594-7-1"
     width="4.3540664"
     height="16.737474"
     x="157.5"
     y="-123.66132"
     transform="rotate(90)" />
  <rect
     style="fill:#000000;stroke-width:1.02008"
     id="rect594-7-9-6"
     width="4.3540664"
     height="16.737474"
     x="157.5"
     y="-153.66132"
     transform="rotate(90)" />
  <rect
     style="fill:#000000;stroke-width:1.02008"
     id="rect594-7-5-2"
     width="4.3540664"
     height="16.737474"
     x="157.5"
     y="-183.66132"
     transform="rotate(90)" />
  <rect
     style="fill:#000000;stroke-width:1.02008"
     id="rect594-7-2-4"
     width="4.3540664"
     height="16.737474"
     x="157.5"
     y="-213.66132"
     transform="rotate(90)" />
  <rect
     style="fill:#000000;stroke-width:1.02008"
     id="rect594-7-29-5"
     width="4.3540664"
     height="16.737474"
     x="157.5"
     y="-243.66132"
     transform="rotate(90)" />
  <rect
     style="fill:#000000;stroke-width:1.02008"
     id="rect594-7-6"
     width="4.3540664"
     height="16.737474"
     x="185"
     y="-123.66132"
     transform="rotate(90)" />
  <rect
     style="fill:#000000;stroke-width:1.02008"
     id="rect594-7-9-4"
     width="4.3540664"
     height="16.737474"
     x="185"
     y="-153.66132"
     transform="rotate(90)" />
  <rect
     style="fill:#000000;stroke-width:1.02008"
     id="rect594-7-5-6"
     width="4.3540664"
     height="16.737474"
     x="185"
     y="-183.66132"
     transform="rotate(90)" />
  <rect
     style="fill:#000000;stroke-width:1.02008"
     id="rect594-7-2-7"
     width="4.3540664"
     height="16.737474"
     x="185"
     y="-213.66132"
     transform="rotate(90)" />
  <rect
     style="fill:#000000;stroke-width:1.02008"
     id="rect594-7-29-2"
     width="4.3540664"
     height="16.737474"
     x="185"
     y="-243.66132"
     transform="rotate(90)" />
  <rect
     style="fill:#000000;stroke-width:1.02008"
     id="rect594-7-4"
     width="4.3540664"
     height="16.737474"
     x="212.5"
     y="-123.66132"
     transform="rotate(90)" />
  <rect
     style="fill:#000000;stroke-width:1.02008"
     id="rect594-7-9-1"
     width="4.3540664"
     height="16.737474"
     x="212.5"
     y="-153.66132"
     transform="rotate(90)" />
  <rect
     style="fill:#000000;stroke-width:1.02008"
     id="rect594-7-5-9"
     width="4.3540664"
     height="16.737474"
     x="212.5"
     y="-183.66132"
     transform="rotate(90)" />
  <rect
     style="fill:#000000;stroke-width:1.02008"
     id="rect594-7-2-71"
     width="4.3540664"
     height="16.737474"
     x="212.5"
     y="-213.66132"
     transform="rotate(90)" />
  <rect
     style="fill:#000000;stroke-width:1.02008"
     id="rect594-7-29-54"
     width="4.3540664"
     height="16.737474"
     x="212.5"
     y="-243.66132"
     transform="rotate(90)" />
  <rect
     style="fill:#000000;stroke-width:1.31855"
     id="rect1159"
     width="45.679359"
     height="43.935871"
     x="19.875751"
     y="22.665331" />
  <rect
     style="fill:#ffffff;stroke-width:1.31855"
     id="rect1159-3"
     width="38.443027"
     height="38.794441"
     x="23.267782"
     y="25.002344" />
  <g
     aria-label="S"
     transform="matrix(1.1839362,0,0,1.4684675,-5.9036886,-7.7158577)"
     id="text1237"
     style="font-size:24.0501px;fill:#000000;stroke-width:2.00417">
    <path
       d="m 47.193894,38.760904 q 0,1.02166 -0.481471,2.019833 -0.469729,0.998173 -1.326983,1.691023 -0.939457,0.751565 -2.195981,1.174321 -1.244781,0.422756 -3.006263,0.422756 -1.890657,0 -3.405532,-0.352297 -1.503131,-0.352296 -3.064978,-1.045146 v -2.912316 h 0.164405 q 1.326983,1.103862 3.064978,1.702765 1.737996,0.598904 3.264614,0.598904 2.160751,0 3.358559,-0.810281 1.209551,-0.810282 1.209551,-2.160752 0,-1.162578 -0.575418,-1.714509 -0.563674,-0.551931 -1.726252,-0.857254 -0.880741,-0.234864 -1.914144,-0.387526 -1.021659,-0.152662 -2.172494,-0.387526 -2.325157,-0.493215 -3.452505,-1.67928 -1.115605,-1.197807 -1.115605,-3.111951 0,-2.195981 1.855427,-3.593423 1.855428,-1.409186 4.709029,-1.409186 1.843684,0 3.382045,0.352296 1.538361,0.352297 2.724426,0.868998 v 2.747912 h -0.164405 q -0.998173,-0.845511 -2.63048,-1.397442 -1.620563,-0.563675 -3.323329,-0.563675 -1.867171,0 -3.006263,0.775053 -1.127348,0.775052 -1.127348,1.996346 0,1.092119 0.563674,1.714509 0.563674,0.62239 1.984603,0.9512 0.751566,0.164405 2.137265,0.399269 1.385699,0.234865 2.348642,0.481472 1.949374,0.516701 2.935804,1.561847 0.986429,1.045146 0.986429,2.92406 z"
       id="path1396" />
  </g>
</svg>
